<?xml version="1.0" encoding="UTF-8" standalone="no"?>
<!-- Created with Inkscape (http://www.inkscape.org/) -->

<svg
   xmlns:dc="http://purl.org/dc/elements/1.1/"
   xmlns:cc="http://creativecommons.org/ns#"
   xmlns:rdf="http://www.w3.org/1999/02/22-rdf-syntax-ns#"
   xmlns:svg="http://www.w3.org/2000/svg"
   xmlns="http://www.w3.org/2000/svg"
   xmlns:xlink="http://www.w3.org/1999/xlink"
   xmlns:sodipodi="http://sodipodi.sourceforge.net/DTD/sodipodi-0.dtd"
   xmlns:inkscape="http://www.inkscape.org/namespaces/inkscape"
   id="svg2"
   height="22"
   width="22"
   version="1.0"
   inkscape:version="0.48.1 r9760"
   sodipodi:docname="contact-new.svg">
  <metadata
     id="metadata73">
    <rdf:RDF>
      <cc:Work
         rdf:about="">
        <dc:format>image/svg+xml</dc:format>
        <dc:type
           rdf:resource="http://purl.org/dc/dcmitype/StillImage" />
        <dc:title></dc:title>
      </cc:Work>
    </rdf:RDF>
  </metadata>
  <sodipodi:namedview
     pagecolor="#ffffff"
     bordercolor="#666666"
     borderopacity="1"
     objecttolerance="10"
     gridtolerance="10"
     guidetolerance="10"
     inkscape:pageopacity="0"
     inkscape:pageshadow="2"
     inkscape:window-width="640"
     inkscape:window-height="480"
     id="namedview71"
     showgrid="false"
     inkscape:zoom="13.090909"
     inkscape:cx="11"
     inkscape:cy="11"
     inkscape:window-x="1573"
     inkscape:window-y="82"
     inkscape:window-maximized="0"
     inkscape:current-layer="svg2" />
  <defs
     id="defs4">
    <linearGradient
       id="linearGradient7875"
       y2="40"
       gradientUnits="userSpaceOnUse"
       x2="21.875"
       y1="48.001"
       x1="21.875">
      <stop
         id="stop2806"
         style="stop-opacity:0"
         offset="0" />
      <stop
         id="stop2812"
         offset=".5" />
      <stop
         id="stop2808"
         style="stop-opacity:0"
         offset="1" />
    </linearGradient>
    <radialGradient
       id="radialGradient7873"
       xlink:href="#linearGradient2781"
       gradientUnits="userSpaceOnUse"
       cy="44"
       cx="1"
       gradientTransform="matrix(2,0,0,0.8,36,8.8)"
       r="5" />
    <linearGradient
       id="linearGradient2781">
      <stop
         id="stop2783"
         offset="0" />
      <stop
         id="stop2785"
         style="stop-opacity:0"
         offset="1" />
    </linearGradient>
    <radialGradient
       id="radialGradient7871"
       xlink:href="#linearGradient2781"
       gradientUnits="userSpaceOnUse"
       cy="44"
       cx="1"
       gradientTransform="matrix(2,0,0,0.8,-13,-79.2)"
       r="5" />
    <linearGradient
       id="linearGradient7883"
       y2="34.609"
       xlink:href="#linearGradient4585"
       gradientUnits="userSpaceOnUse"
       x2="8.4886"
       y1="18.345"
       x1="9.1178" />
    <linearGradient
       id="linearGradient7881"
       y2="36.625"
       xlink:href="#linearGradient6732"
       gradientUnits="userSpaceOnUse"
       x2="31.5"
       gradientTransform="matrix(0.85804,0,0,0.8,-0.93222,9.3)"
       y1=".75951"
       x1="11.511" />
    <linearGradient
       id="linearGradient6732">
      <stop
         id="stop6734"
         style="stop-color:#fff"
         offset="0" />
      <stop
         id="stop6736"
         style="stop-color:#ddd"
         offset="1" />
    </linearGradient>
    <linearGradient
       id="linearGradient4585">
      <stop
         id="stop4587"
         style="stop-color:#9e9e9e"
         offset="0" />
      <stop
         id="stop4589"
         style="stop-color:#ddd;stop-opacity:0"
         offset="1" />
    </linearGradient>
    <linearGradient
       id="linearGradient7449"
       y2="47.273"
       gradientUnits="userSpaceOnUse"
       x2="24.139"
       gradientTransform="matrix(.28180 0 0 .28010 8.7967 33.376)"
       y1="7.0775"
       x1="24.139">
      <stop
         id="stop4224"
         style="stop-color:#fff"
         offset="0" />
      <stop
         id="stop4226"
         style="stop-color:#fff;stop-opacity:0"
         offset="1" />
    </linearGradient>
    <linearGradient
       id="linearGradient7447"
       y2="32.485"
       gradientUnits="userSpaceOnUse"
       x2="24.104"
       gradientTransform="matrix(.46913 0 0 .46630 4.3006 29.17)"
       y1="15.169"
       x1="24.104">
      <stop
         id="stop2266"
         style="stop-color:#d7e866"
         offset="0" />
      <stop
         id="stop2268"
         style="stop-color:#8cab2a"
         offset="1" />
    </linearGradient>
    <linearGradient
       id="linearGradient2905"
       y2="34.609"
       xlink:href="#linearGradient4585"
       gradientUnits="userSpaceOnUse"
       x2="8.4886"
       gradientTransform="matrix(0.65322715,0,0,0.64061141,-0.95878165,-6.500178)"
       y1="18.345"
       x1="9.1178" />
    <linearGradient
       id="linearGradient2918"
       y2="36.625"
       xlink:href="#linearGradient6732"
       gradientUnits="userSpaceOnUse"
       x2="31.5"
       gradientTransform="matrix(0.52112834,0,0,0.46377543,-1.3780741,0.35993192)"
       y1=".75951"
       x1="11.511" />
  </defs>
  <g
     id="g2822"
     style="opacity:0.2"
     transform="matrix(0.55468257,0,0,0.66946817,-2.558393,-10.992363)">
    <rect
       id="rect1892"
       style="fill:url(#radialGradient7871)"
       transform="scale(-1,-1)"
       height="8"
       width="10"
       y="-48"
       x="-11" />
    <rect
       id="rect2789"
       style="fill:url(#radialGradient7873)"
       height="8"
       width="10"
       y="40"
       x="38" />
    <rect
       id="rect2793"
       style="fill:url(#linearGradient7875)"
       height="8"
       width="27"
       y="40"
       x="11" />
  </g>
  <g
     id="g1962"
     style="stroke-width:1.9131"
     transform="matrix(0.55895153,0,0,0.55742597,-0.16353821,-4.1061599)">
    <rect
       id="rect5857"
       style="fill:url(#linearGradient7881);fill-rule:evenodd;stroke:#939393;stroke-width:1.9131"
       rx="2.75"
       ry="2.75"
       height="24"
       width="34"
       y="16.5"
       x="2.5" />
    <path
       id="text6970"
       d="m 18.395,22.589 c 0,0.29414 -0.06929,0.51971 -0.20785,0.67672 -0.13857,0.15597 -0.32753,0.23395 -0.56687,0.23395 -0.09763,0 -0.19106,-0.01832 -0.28029,-0.05495 v -0.41765 c 0.07874,0.05967 0.16587,0.0895 0.26139,0.0895 0.11758,0 0.20575,-0.04344 0.26454,-0.13032 0.05983,-0.08793 0.08975,-0.21929 0.08975,-0.3941 v -1.3927 H 18.395 v 1.3896 m 1.2266,-0.80391 c 0.24564,2e-6 0.44142,0.07537 0.58734,0.2261 0.14591,0.15073 0.21887,0.35328 0.21887,0.60764 0,0.27634 -0.07821,0.49197 -0.23462,0.64689 -0.15641,0.15387 -0.36636,0.23081 -0.62985,0.23081 -0.2425,0 -0.43985,-0.07589 -0.59207,-0.22767 -0.15116,-0.15178 -0.22675,-0.35066 -0.22675,-0.59665 0,-0.27634 0.07926,-0.49302 0.23778,-0.65003 0.15851,-0.15806 0.37161,-0.23709 0.6393,-0.23709 m -0.03622,1.3739 c 0.12807,0 0.23199,-0.04553 0.31178,-0.1366 0.08083,-0.09211 0.12125,-0.2172 0.12125,-0.37526 0,-0.16015 -0.03989,-0.28629 -0.11967,-0.3784 -0.07979,-0.09316 -0.18214,-0.13974 -0.30705,-0.13974 -0.12388,1e-6 -0.22885,0.04867 -0.31493,0.14602 -0.08608,0.0963 -0.12912,0.22348 -0.12912,0.38154 0,0.15597 0.04199,0.27896 0.12597,0.36898 0.08503,0.08898 0.18895,0.13346 0.31178,0.13346 m 2.6753,0.29204 h -0.42201 v -0.88084 c 0,-0.14759 -0.02257,-0.25436 -0.06771,-0.32031 -0.04515,-0.06699 -0.1223,-0.10049 -0.23148,-0.10049 -0.09553,1e-6 -0.17479,0.03611 -0.23777,0.10834 -0.06299,0.07223 -0.09448,0.16434 -0.09448,0.27634 v 0.91696 h -0.42673 v -2.3803 h 0.42673 v 0.99703 c 0.05774,-0.09421 0.12964,-0.16486 0.21573,-0.21197 0.08713,-0.0471 0.18843,-0.07065 0.3039,-0.07066 0.17741,2e-6 0.31073,0.05496 0.39996,0.16486 0.08923,0.10991 0.13384,0.27477 0.13385,0.49459 v 1.0065 m 1.9337,0 h -0.42201 v -0.88084 c 0,-0.14759 -0.02257,-0.25436 -0.06771,-0.32031 -0.04514,-0.06699 -0.12229,-0.10049 -0.23147,-0.10049 -0.09553,1e-6 -0.17478,0.03611 -0.23777,0.10834 -0.06299,0.07223 -0.09448,0.16434 -0.09448,0.27634 v 0.91696 h -0.42673 v -1.6078 h 0.42673 v 0.22453 c 0.05774,-0.09421 0.12965,-0.16486 0.21573,-0.21197 0.08712,-0.0471 0.18842,-0.07065 0.3039,-0.07066 0.17741,2e-6 0.31073,0.05496 0.39996,0.16486 0.08923,0.10991 0.13385,0.27477 0.13385,0.49459 v 1.0065 m 1.381,-2.2516 h 0.79047 c 0.38211,2e-6 0.6687,0.09159 0.85976,0.27477 0.1921,0.18318 0.28815,0.45743 0.28815,0.82275 0,0.35276 -0.10812,0.63328 -0.32437,0.84159 -0.21521,0.2083 -0.50704,0.31246 -0.87551,0.31246 h -0.7385 v -2.2516 m 0.43932,1.9046 h 0.28974 c 0.23724,0 0.42358,-0.07066 0.559,-0.21197 0.13647,-0.14131 0.20469,-0.33444 0.2047,-0.57938 -10e-6,-0.23761 -0.06614,-0.42236 -0.1984,-0.55426 -0.13228,-0.13189 -0.31651,-0.19784 -0.5527,-0.19784 H 26.0147 v 1.5434 m 2.6265,-1.3189 c 0.24564,2e-6 0.44142,0.07537 0.58734,0.2261 0.14591,0.15073 0.21888,0.35328 0.21888,0.60764 0,0.27634 -0.07821,0.49197 -0.23462,0.64689 -0.15642,0.15387 -0.36637,0.23081 -0.62986,0.23081 -0.2425,0 -0.43985,-0.07589 -0.59207,-0.22767 -0.15117,-0.15178 -0.22675,-0.35066 -0.22675,-0.59665 0,-0.27634 0.07926,-0.49302 0.23777,-0.65003 0.15851,-0.15806 0.37162,-0.23709 0.63931,-0.23709 m -0.03622,1.3739 c 0.12807,0 0.232,-0.04553 0.31178,-0.1366 0.08083,-0.09211 0.12125,-0.2172 0.12125,-0.37526 0,-0.16015 -0.0399,-0.28629 -0.11968,-0.3784 -0.07978,-0.09316 -0.18213,-0.13974 -0.30705,-0.13974 -0.12388,10e-7 -0.22885,0.04867 -0.31493,0.14602 -0.08608,0.0963 -0.12912,0.22348 -0.12912,0.38154 0,0.15597 0.04199,0.27896 0.12597,0.36898 0.08503,0.08898 0.18896,0.13346 0.31178,0.13346 m 2.5824,-0.41922 h -1.0739 c 0,0.13189 0.04041,0.23447 0.12125,0.30774 0.08188,0.07223 0.19525,0.10834 0.34012,0.10834 0.15956,1e-6 0.31336,-0.04763 0.46137,-0.14288 v 0.34857 c -0.16586,0.08583 -0.35167,0.12875 -0.55742,0.12875 -0.2488,0 -0.44352,-0.07275 -0.58419,-0.21825 -0.13962,-0.1455 -0.20944,-0.34438 -0.20944,-0.59665 0,-0.27216 0.07454,-0.48883 0.22361,-0.65003 0.15011,-0.16224 0.34747,-0.24337 0.59206,-0.24337 0.2152,2e-6 0.38316,0.06699 0.50389,0.20098 0.12177,0.13294 0.18266,0.31874 0.18266,0.5574 v 0.19941 m -0.39367,-0.28262 c 0,-0.112 -0.02834,-0.1994 -0.08503,-0.26221 -0.05563,-0.0628 -0.13489,-0.09421 -0.23777,-0.09421 -0.09342,2e-6 -0.17426,0.03245 -0.24249,0.09735 -0.06824,0.06385 -0.10655,0.15021 -0.11495,0.25907 h 0.68024"
       inkscape:connector-curvature="0" />
    <rect
       id="rect6978"
       style="opacity:0.39766002;fill:#8d8d8d;fill-rule:evenodd"
       rx="1"
       ry="1"
       height="2"
       width="15"
       y="25"
       x="17" />
    <rect
       id="rect6980"
       style="opacity:0.39766002;fill:#8d8d8d;fill-rule:evenodd"
       rx="1"
       ry="1"
       height="2"
       width="10.956"
       y="28"
       x="17.089001" />
    <g
       id="g7033"
       style="opacity:0.48537999;stroke-width:2.68190002"
       transform="matrix(0.78254,0,0,0.65025,0.39068,14.551)">
      <rect
         id="rect7003"
         style="fill-rule:evenodd"
         rx="0"
         ry="0"
         height="6"
         width="1"
         y="30"
         x="6" />
      <rect
         id="rect7005"
         style="fill-rule:evenodd"
         rx="0"
         ry="0"
         height="2.9851999"
         width="1.9375"
         y="30"
         x="8.0846004" />
      <rect
         id="rect7007"
         style="fill-rule:evenodd"
         height="2.9851999"
         width="1"
         y="30"
         x="11" />
      <rect
         id="rect7009"
         style="fill-rule:evenodd"
         height="2.9851999"
         width="2"
         y="30"
         x="13" />
      <rect
         id="rect7011"
         style="fill-rule:evenodd"
         height="2.9851999"
         width="1"
         y="30"
         x="16" />
      <rect
         id="rect7013"
         style="fill-rule:evenodd"
         height="2.9851999"
         width="1"
         y="30"
         x="18" />
      <rect
         id="rect7015"
         style="fill-rule:evenodd"
         height="2.9851999"
         width="1"
         y="30"
         x="21" />
      <rect
         id="rect7017"
         style="fill-rule:evenodd"
         height="2.9851999"
         width="2"
         y="30"
         x="23" />
      <rect
         id="rect7019"
         style="fill-rule:evenodd"
         height="2.9851999"
         width="2"
         y="30"
         x="26" />
      <rect
         id="rect7021"
         style="fill-rule:evenodd"
         height="2.9851999"
         width="1"
         y="30"
         x="29" />
      <rect
         id="rect7023"
         style="fill-rule:evenodd"
         height="2.9851999"
         width="1"
         y="30"
         x="31" />
      <rect
         id="rect7025"
         style="fill-rule:evenodd"
         height="2.9851999"
         width="1"
         y="30"
         x="33" />
      <rect
         id="rect7027"
         style="fill-rule:evenodd"
         height="2.9851999"
         width="2"
         y="30"
         x="35" />
      <rect
         id="rect7029"
         style="fill-rule:evenodd"
         height="2.9851999"
         width="2"
         y="30"
         x="39" />
      <rect
         id="rect7031"
         style="fill-rule:evenodd"
         height="6"
         width="1"
         y="30"
         x="42" />
    </g>
    <path
       id="text7050"
       d="m 7.473,37.137 c 0.058659,0.01251 0.10438,0.03852 0.13714,0.07805 0.033172,0.03953 0.049762,0.08834 0.049762,0.14643 0,0.08915 -0.030746,0.15813 -0.092238,0.20694 -0.061492,0.04881 -0.14887,0.07322 -0.26214,0.07322 -0.038031,0 -0.077276,-0.0038 -0.11772,-0.0115 -0.040051,-0.0073 -0.081517,-0.01835 -0.1244,-0.03328 v -0.11799 c 0.033986,0.01977 0.071204,0.03469 0.11165,0.04478 0.040458,0.01009 0.082731,0.01513 0.12683,0.01513 0.076869,0 0.13532,-0.01513 0.17538,-0.04538 0.04045,-0.03025 0.060678,-0.07422 0.060678,-0.13191 0,-0.05325 -0.018812,-0.0948 -0.056429,-0.12465 -0.037225,-0.03025 -0.089209,-0.04538 -0.15595,-0.04538 h -0.10559 v -0.10044 h 0.11044 c 0.06028,10e-7 0.1064,-0.0119 0.13835,-0.0357 0.031959,-0.0242 0.047938,-0.05889 0.047938,-0.10407 0,-0.04639 -0.016582,-0.08189 -0.049754,-0.10649 -0.032773,-0.02501 -0.079905,-0.03752 -0.14139,-0.03752 -0.033579,0 -0.069584,0.0036 -0.10802,0.01089 -0.038438,0.0073 -0.080711,0.01856 -0.12683,0.03388 V 36.7431 c 0.046522,-0.01291 0.090008,-0.02259 0.13046,-0.02904 0.040857,-0.0065 0.079287,-0.0097 0.11529,-0.0097 0.093052,2e-6 0.16667,0.02118 0.22089,0.06353 0.054207,0.04195 0.081314,0.09883 0.081314,0.17063 0,0.05002 -0.014368,0.09238 -0.043087,0.12707 -0.028719,0.03429 -0.069583,0.05809 -0.12258,0.0714 m 0.52551,0.38423 h 0.42781 v 0.10286 h -0.57527 v -0.10286 c 0.04653,-0.048 0.10984,-0.11234 0.18994,-0.19302 0.080508,-0.08108 0.13108,-0.13332 0.1517,-0.15672 0.039245,-0.04397 0.066548,-0.08108 0.081924,-0.11134 0.015776,-0.03066 0.023665,-0.06071 0.023665,-0.09016 0,-0.048 -0.016989,-0.08713 -0.050975,-0.11739 -0.033579,-0.03025 -0.077472,-0.04538 -0.13168,-0.04538 -0.038431,0 -0.079092,0.0067 -0.12197,0.01997 -0.042484,0.01331 -0.087989,0.03348 -0.13654,0.06051 v -0.12344 c 0.049355,-0.01976 0.09547,-0.03469 0.13835,-0.04478 0.042883,-0.01008 0.082128,-0.01513 0.11773,-0.01513 0.09385,2e-6 0.16869,0.0234 0.22453,0.07019 0.055827,0.04679 0.08374,0.10932 0.08374,0.18758 0,0.03711 -0.00708,0.07241 -0.021238,0.10589 -0.013757,0.03308 -0.039041,0.07221 -0.075852,0.11738 -0.010118,0.0117 -0.04228,0.04558 -0.096487,0.10165 -0.054207,0.05567 -0.13067,0.13372 -0.22938,0.23417 m 1.0225,-0.69403 -0.30948,0.48225 h 0.30948 V 36.82717 M 8.988839,36.72068 h 0.15414 v 0.58874 h 0.12925 v 0.10165 h -0.12925 v 0.21299 h -0.12198 v -0.21299 h -0.409 v -0.11799 l 0.37683,-0.57241 m 0.48789,0 h 0.48121 v 0.10286 h -0.36895 v 0.22146 c 0.017803,-0.0061 0.035606,-0.01049 0.053401,-0.01331 0.017803,-0.0032 0.035605,-0.0048 0.0534,-0.0048 0.10114,1e-6 0.18124,0.02763 0.2403,0.0829 0.059066,0.05527 0.088599,0.13009 0.088599,0.22449 0,0.09722 -0.030347,0.17285 -0.091025,0.2269 -0.060686,0.05365 -0.14624,0.08048 -0.25669,0.08048 -0.038024,0 -0.076861,-0.0032 -0.1165,-0.0097 C 9.52122,37.62545 9.480567,37.61581 9.438494,37.6029 v -0.12283 c 0.036411,0.01977 0.074036,0.03449 0.11287,0.04417 0.03883,0.0097 0.079898,0.01452 0.12318,0.01452 0.069991,0 0.12541,-0.01835 0.16627,-0.05506 0.040857,-0.03671 0.061289,-0.08653 0.061289,-0.14946 0,-0.06293 -0.020432,-0.11275 -0.061289,-0.14946 -0.040864,-0.03671 -0.096283,-0.05506 -0.16627,-0.05506 -0.032765,0 -0.065538,0.0036 -0.098303,0.01089 -0.032366,0.0073 -0.065537,0.01856 -0.099515,0.03388 v -0.45381 m 1.4479,0.08047 c -0.06311,10e-7 -0.11064,0.03106 -0.1426,0.09318 -0.03156,0.06172 -0.04734,0.1547 -0.04734,0.27894 0,0.12384 0.01578,0.21682 0.04734,0.27894 0.03196,0.06172 0.07949,0.09258 0.1426,0.09258 0.06351,0 0.11105,-0.03086 0.1426,-0.09258 0.03196,-0.06212 0.04794,-0.1551 0.04794,-0.27894 0,-0.12424 -0.01598,-0.21722 -0.04794,-0.27894 -0.03155,-0.06212 -0.07909,-0.09318 -0.1426,-0.09318 m 0,-0.09681 c 0.10154,2e-6 0.17901,0.04014 0.23241,0.12041 0.0538,0.07987 0.0807,0.19605 0.0807,0.34853 0,0.15208 -0.0269,0.26825 -0.0807,0.34853 -0.0534,0.07987 -0.13087,0.11981 -0.23241,0.11981 -0.10154,0 -0.17922,-0.03993 -0.23302,-0.11981 -0.0534,-0.08027 -0.0801,-0.19645 -0.0801,-0.34853 0,-0.15248 0.0267,-0.26866 0.0801,-0.34853 0.0538,-0.08027 0.13147,-0.12041 0.23302,-0.12041 m 0.53036,0.01634 h 0.48121 v 0.10286 h -0.36894 V 37.045 c 0.0178,-0.0061 0.0356,-0.01049 0.0534,-0.01331 0.0178,-0.0032 0.0356,-0.0048 0.0534,-0.0048 0.10114,10e-7 0.18124,0.02763 0.2403,0.0829 0.05906,0.05527 0.08859,0.13009 0.08859,0.22449 0,0.09722 -0.03034,0.17285 -0.09102,0.2269 -0.06069,0.05365 -0.14625,0.08048 -0.25669,0.08048 -0.03802,0 -0.07686,-0.0032 -0.11651,-0.0097 -0.03924,-0.0065 -0.0799,-0.01614 -0.12197,-0.02905 v -0.12283 c 0.03641,0.01977 0.07403,0.03449 0.11287,0.04417 0.03884,0.0097 0.0799,0.01452 0.12319,0.01452 0.06998,0 0.12541,-0.01835 0.16627,-0.05506 0.04086,-0.03671 0.06129,-0.08653 0.06129,-0.14946 0,-0.06293 -0.02043,-0.11275 -0.06129,-0.14946 -0.04086,-0.03671 -0.09628,-0.05506 -0.16627,-0.05506 -0.03277,0 -0.06554,0.0036 -0.0983,0.01089 -0.03237,0.0073 -0.06554,0.01856 -0.09952,0.03388 v -0.45381 m 0.7913,0 h 0.48121 v 0.10286 h -0.36894 v 0.22146 c 0.01779,-0.0061 0.0356,-0.01049 0.0534,-0.01331 0.01779,-0.0032 0.0356,-0.0048 0.0534,-0.0048 0.10114,1e-6 0.18124,0.02763 0.2403,0.0829 0.05907,0.05527 0.0886,0.13009 0.0886,0.22449 0,0.09722 -0.03034,0.17285 -0.09103,0.2269 -0.06068,0.05365 -0.14624,0.08048 -0.25668,0.08048 -0.03803,0 -0.07687,-0.0032 -0.11651,-0.0097 -0.03924,-0.0065 -0.0799,-0.01614 -0.12197,-0.02905 v -0.12283 c 0.0364,0.01977 0.07403,0.03449 0.11287,0.04417 0.03884,0.0097 0.0799,0.01452 0.12319,0.01452 0.06998,0 0.1254,-0.01835 0.16627,-0.05506 0.04086,-0.03671 0.06129,-0.08653 0.06129,-0.14946 0,-0.06293 -0.02043,-0.11275 -0.06129,-0.14946 -0.04087,-0.03671 -0.09628,-0.05506 -0.16627,-0.05506 -0.03277,0 -0.06554,0.0036 -0.09831,0.01089 -0.03237,0.0073 -0.06554,0.01856 -0.09952,0.03388 V 36.7207 m 0.75914,0 h 0.58255 v 0.05204 l -0.3289,0.85135 h -0.12804 l 0.30948,-0.80052 h -0.43508 v -0.10286 m 1.2191,0 h 0.48121 v 0.10286 h -0.36895 v 0.22146 c 0.0178,-0.0061 0.03561,-0.01049 0.0534,-0.01331 0.0178,-0.0032 0.03561,-0.0048 0.0534,-0.0048 0.10114,1e-6 0.18124,0.02763 0.2403,0.0829 0.05907,0.05527 0.0886,0.13009 0.0886,0.22449 0,0.09722 -0.03035,0.17285 -0.09103,0.2269 -0.06069,0.05365 -0.14625,0.08048 -0.25669,0.08048 -0.03802,0 -0.07686,-0.0032 -0.1165,-0.0097 -0.03924,-0.0065 -0.0799,-0.01614 -0.12198,-0.02905 v -0.12283 c 0.03641,0.01977 0.07404,0.03449 0.11287,0.04417 0.03883,0.0097 0.0799,0.01452 0.12318,0.01452 0.06999,0 0.12541,-0.01835 0.16627,-0.05506 0.04087,-0.03671 0.06129,-0.08653 0.0613,-0.14946 -8e-6,-0.06293 -0.02043,-0.11275 -0.0613,-0.14946 -0.04086,-0.03671 -0.09628,-0.05506 -0.16627,-0.05506 -0.03277,0 -0.06554,0.0036 -0.0983,0.01089 -0.03237,0.0073 -0.06554,0.01856 -0.09952,0.03388 v -0.45381 m 0.81132,0.80052 h 0.20025 v -0.68919 l -0.21785,0.04357 v -0.11134 l 0.21664,-0.04357 h 0.12258 v 0.80052 h 0.20025 v 0.10286 h -0.52187 v -0.10286 m 1.0322,-0.72005 c -0.06311,10e-7 -0.11064,0.03106 -0.1426,0.09318 -0.03155,0.06172 -0.04733,0.1547 -0.04733,0.27894 0,0.12384 0.01578,0.21682 0.04733,0.27894 0.03196,0.06172 0.07949,0.09258 0.1426,0.09258 0.06351,0 0.11105,-0.03086 0.1426,-0.09258 0.03196,-0.06212 0.04794,-0.1551 0.04794,-0.27894 0,-0.12424 -0.01598,-0.21722 -0.04794,-0.27894 -0.03155,-0.06212 -0.07909,-0.09318 -0.1426,-0.09318 m 0,-0.09681 c 0.10154,2e-6 0.17901,0.04014 0.23242,0.12041 0.0538,0.07987 0.0807,0.19605 0.0807,0.34853 0,0.15208 -0.0269,0.26825 -0.0807,0.34853 -0.0534,0.07987 -0.13087,0.11981 -0.23242,0.11981 -0.10154,0 -0.17921,-0.03993 -0.23302,-0.11981 -0.0534,-0.08027 -0.0801,-0.19645 -0.0801,-0.34853 0,-0.15248 0.0267,-0.26866 0.0801,-0.34853 0.05381,-0.08027 0.13148,-0.12041 0.23302,-0.12041 m 0.80646,0.41932 c -0.05501,10e-7 -0.09871,0.01876 -0.13107,0.05627 -0.03196,0.03751 -0.04794,0.08895 -0.04794,0.1543 0,0.06494 0.01598,0.11638 0.04794,0.1543 0.03236,0.03751 0.07606,0.05627 0.13107,0.05627 0.05502,0 0.09851,-0.01876 0.13047,-0.05627 0.03236,-0.03792 0.04854,-0.08935 0.04854,-0.1543 0,-0.06535 -0.01618,-0.11678 -0.04854,-0.1543 -0.03196,-0.03751 -0.07545,-0.05627 -0.13047,-0.05627 m 0.24334,-0.38302 v 0.11134 c -0.03075,-0.01452 -0.0619,-0.02561 -0.09345,-0.03328 -0.03115,-0.0077 -0.06209,-0.0115 -0.09284,-0.0115 -0.08091,0 -0.14281,0.02723 -0.18569,0.08169 -0.04248,0.05446 -0.06675,0.13675 -0.07282,0.24687 0.02387,-0.03509 0.0538,-0.06192 0.08981,-0.08048 0.036,-0.01896 0.07565,-0.02844 0.11894,-0.02844 0.09102,10e-7 0.16283,0.02763 0.21542,0.0829 0.053,0.05486 0.0795,0.12969 0.0795,0.22449 0,0.09278 -0.02751,0.1672 -0.08253,0.22328 -0.05502,0.05607 -0.12824,0.08411 -0.21968,0.08411 -0.10478,0 -0.18488,-0.03993 -0.2403,-0.11981 -0.05543,-0.08027 -0.08314,-0.19645 -0.08314,-0.34853 0,-0.1428 0.03398,-0.25655 0.10195,-0.34127 0.06796,-0.08511 0.15918,-0.12767 0.27367,-0.12767 0.03075,2e-6 0.0617,0.003 0.09285,0.0091 0.03155,0.0061 0.06432,0.01513 0.0983,0.02723 m 0.6675,-0.01997 h 0.48121 v 0.10286 h -0.36895 v 0.22146 c 0.0178,-0.0061 0.03561,-0.01049 0.0534,-0.01331 0.0178,-0.0032 0.03561,-0.0048 0.0534,-0.0048 0.10114,10e-7 0.18124,0.02763 0.2403,0.0829 0.05907,0.05527 0.0886,0.13009 0.0886,0.22449 0,0.09722 -0.03035,0.17285 -0.09103,0.2269 -0.06069,0.05365 -0.14625,0.08048 -0.25669,0.08048 -0.03802,0 -0.07686,-0.0032 -0.1165,-0.0097 -0.03925,-0.0065 -0.0799,-0.01614 -0.12197,-0.02905 v -0.12283 c 0.03641,0.01977 0.07403,0.03449 0.11287,0.04417 0.03883,0.0097 0.0799,0.01452 0.12318,0.01452 0.06999,0 0.12541,-0.01835 0.16627,-0.05506 0.04086,-0.03671 0.06129,-0.08653 0.0613,-0.14946 -7e-6,-0.06293 -0.02043,-0.11275 -0.0613,-0.14946 -0.04086,-0.03671 -0.09628,-0.05506 -0.16627,-0.05506 -0.03277,0 -0.06554,0.0036 -0.0983,0.01089 -0.03237,0.0073 -0.06554,0.01856 -0.09952,0.03388 v -0.45381 m 1.1269,0.10649 -0.30948,0.48225 h 0.30948 v -0.48225 m -0.03216,-0.10649 h 0.15413 v 0.58874 h 0.12925 v 0.10165 h -0.12925 v 0.21299 h -0.12197 v -0.21299 h -0.409 v -0.11799 l 0.37684,-0.57241 m 0.74881,0.08047 c -0.06311,10e-7 -0.11064,0.03106 -0.1426,0.09318 -0.03155,0.06172 -0.04733,0.1547 -0.04733,0.27894 0,0.12384 0.01578,0.21682 0.04733,0.27894 0.03196,0.06172 0.07949,0.09258 0.1426,0.09258 0.06351,0 0.11105,-0.03086 0.1426,-0.09258 0.03196,-0.06212 0.04794,-0.1551 0.04794,-0.27894 0,-0.12424 -0.01598,-0.21722 -0.04794,-0.27894 -0.03155,-0.06212 -0.07909,-0.09318 -0.1426,-0.09318 m 0,-0.09681 c 0.10154,2e-6 0.17901,0.04014 0.23242,0.12041 0.0538,0.07987 0.0807,0.19605 0.0807,0.34853 0,0.15208 -0.0269,0.26825 -0.0807,0.34853 -0.0534,0.07987 -0.13087,0.11981 -0.23242,0.11981 -0.10154,0 -0.17922,-0.03993 -0.23302,-0.11981 -0.0534,-0.08027 -0.0801,-0.19645 -0.0801,-0.34853 0,-0.15248 0.0267,-0.26866 0.0801,-0.34853 0.0538,-0.08027 0.13147,-0.12041 0.23302,-0.12041 m 0.80646,0.41932 c -0.05501,10e-7 -0.09871,0.01876 -0.13107,0.05627 -0.03196,0.03751 -0.04794,0.08895 -0.04794,0.1543 0,0.06494 0.01598,0.11638 0.04794,0.1543 0.03236,0.03751 0.07606,0.05627 0.13107,0.05627 0.05502,0 0.09851,-0.01876 0.13047,-0.05627 0.03237,-0.03792 0.04855,-0.08935 0.04855,-0.1543 0,-0.06535 -0.01618,-0.11678 -0.04855,-0.1543 -0.03196,-0.03751 -0.07545,-0.05627 -0.13047,-0.05627 m 0.24334,-0.38302 v 0.11134 c -0.03075,-0.01452 -0.0619,-0.02561 -0.09345,-0.03328 -0.03115,-0.0077 -0.0621,-0.0115 -0.09284,-0.0115 -0.08092,0 -0.14281,0.02723 -0.18569,0.08169 -0.04248,0.05446 -0.06675,0.13675 -0.07282,0.24687 0.02387,-0.03509 0.05381,-0.06192 0.08981,-0.08048 0.03601,-0.01896 0.07565,-0.02844 0.11894,-0.02844 0.09103,10e-7 0.16283,0.02763 0.21542,0.0829 0.053,0.05486 0.0795,0.12969 0.0795,0.22449 0,0.09278 -0.02751,0.1672 -0.08253,0.22328 -0.05502,0.05607 -0.12824,0.08411 -0.21968,0.08411 -0.10477,0 -0.18488,-0.03993 -0.2403,-0.11981 -0.05543,-0.08027 -0.08314,-0.19645 -0.08314,-0.34853 0,-0.1428 0.03398,-0.25655 0.10194,-0.34127 0.06796,-0.08511 0.15919,-0.12767 0.27368,-0.12767 0.03075,2e-6 0.0617,0.003 0.09285,0.0091 0.03155,0.0061 0.06432,0.01513 0.0983,0.02723 m 0.6675,-0.01997 h 0.48122 v 0.10286 h -0.36895 v 0.22146 c 0.0178,-0.0061 0.03561,-0.01049 0.0534,-0.01331 0.0178,-0.0032 0.0356,-0.0048 0.0534,-0.0048 0.10114,10e-7 0.18124,0.02763 0.2403,0.0829 0.05907,0.05527 0.08859,0.13009 0.0886,0.22449 -8e-6,0.09722 -0.03035,0.17285 -0.09103,0.2269 -0.06069,0.05365 -0.14625,0.08048 -0.25669,0.08048 -0.03802,0 -0.07686,-0.0032 -0.1165,-0.0097 -0.03925,-0.0065 -0.0799,-0.01614 -0.12198,-0.02905 v -0.12283 c 0.03641,0.01977 0.07404,0.03449 0.11287,0.04417 0.03884,0.0097 0.07991,0.01452 0.12319,0.01452 0.06999,0 0.12541,-0.01835 0.16627,-0.05506 0.04086,-0.03671 0.06129,-0.08653 0.06129,-0.14946 0,-0.06293 -0.02042,-0.11275 -0.06129,-0.14946 -0.04086,-0.03671 -0.09628,-0.05506 -0.16627,-0.05506 -0.03277,0 -0.06554,0.0036 -0.0983,0.01089 -0.03237,0.0073 -0.06554,0.01856 -0.09952,0.03388 v -0.45381 m 1.1269,0.10649 -0.30947,0.48225 h 0.30947 v -0.48225 m -0.03215,-0.10649 h 0.15412 v 0.58874 h 0.12926 v 0.10165 h -0.12926 v 0.21299 h -0.12197 v -0.21299 h -0.409 v -0.11799 l 0.37685,-0.57241 m 0.76398,0.40298 c -0.05502,10e-7 -0.09871,0.01876 -0.13107,0.05627 -0.03196,0.03751 -0.04794,0.08895 -0.04794,0.1543 0,0.06494 0.01598,0.11638 0.04794,0.1543 0.03236,0.03751 0.07605,0.05627 0.13107,0.05627 0.05502,0 0.09851,-0.01876 0.13047,-0.05627 0.03236,-0.03792 0.04854,-0.08935 0.04855,-0.1543 -10e-6,-0.06535 -0.01619,-0.11678 -0.04855,-0.1543 -0.03196,-0.03751 -0.07545,-0.05627 -0.13047,-0.05627 m 0.24333,-0.38302 v 0.11134 c -0.03074,-0.01452 -0.06189,-0.02561 -0.09345,-0.03328 -0.03114,-0.0077 -0.06209,-0.0115 -0.09284,-0.0115 -0.08091,0 -0.1428,0.02723 -0.18569,0.08169 -0.04247,0.05446 -0.06675,0.13675 -0.07281,0.24687 0.02386,-0.03509 0.0538,-0.06192 0.0898,-0.08048 0.03601,-0.01896 0.07566,-0.02844 0.11894,-0.02844 0.09103,10e-7 0.16283,0.02763 0.21543,0.0829 0.05299,0.05486 0.07949,0.12969 0.07949,0.22449 0,0.09278 -0.02751,0.1672 -0.08253,0.22328 -0.05502,0.05607 -0.12824,0.08411 -0.21967,0.08411 -0.10478,0 -0.18488,-0.03993 -0.2403,-0.11981 -0.05543,-0.08027 -0.08314,-0.19645 -0.08314,-0.34853 0,-0.1428 0.03399,-0.25655 0.10195,-0.34127 0.06797,-0.08511 0.15919,-0.12767 0.27368,-0.12767 0.03074,2e-6 0.06169,0.003 0.09284,0.0091 0.03155,0.0061 0.06433,0.01513 0.0983,0.02723 m 0.27186,-0.01997 h 0.48121 v 0.10286 h -0.36895 v 0.22146 c 0.0178,-0.0061 0.03561,-0.01049 0.0534,-0.01331 0.01781,-0.0032 0.0356,-0.0048 0.0534,-0.0048 0.10114,10e-7 0.18124,0.02763 0.24031,0.0829 0.05906,0.05527 0.08859,0.13009 0.08859,0.22449 0,0.09722 -0.03034,0.17285 -0.09102,0.2269 -0.06069,0.05365 -0.14625,0.08048 -0.25669,0.08048 -0.03802,0 -0.07686,-0.0032 -0.1165,-0.0097 -0.03925,-0.0065 -0.0799,-0.01614 -0.12198,-0.02905 v -0.12283 c 0.03641,0.01977 0.07404,0.03449 0.11287,0.04417 0.03883,0.0097 0.0799,0.01452 0.12318,0.01452 0.07,0 0.12541,-0.01835 0.16627,-0.05506 0.04087,-0.03671 0.06129,-0.08653 0.06129,-0.14946 0,-0.06293 -0.02042,-0.11275 -0.06129,-0.14946 -0.04086,-0.03671 -0.09627,-0.05506 -0.16627,-0.05506 -0.03276,0 -0.06553,0.0036 -0.0983,0.01089 -0.03236,0.0073 -0.06554,0.01856 -0.09952,0.03388 v -0.45381 m 1.1548,0 h 0.58255 v 0.05204 l -0.3289,0.85135 h -0.12804 l 0.30948,-0.80052 h -0.43509 v -0.10286 m 1.0844,0.08047 c -0.06311,10e-7 -0.11065,0.03106 -0.14261,0.09318 -0.03156,0.06172 -0.04733,0.1547 -0.04733,0.27894 0,0.12384 0.01577,0.21682 0.04733,0.27894 0.03196,0.06172 0.0795,0.09258 0.14261,0.09258 0.06351,0 0.11104,-0.03086 0.1426,-0.09258 0.03196,-0.06212 0.04794,-0.1551 0.04794,-0.27894 0,-0.12424 -0.01598,-0.21722 -0.04794,-0.27894 -0.03156,-0.06212 -0.07909,-0.09318 -0.1426,-0.09318 m 0,-0.09681 c 0.10153,2e-6 0.179,0.04014 0.2324,0.12041 0.05381,0.07987 0.08072,0.19605 0.08072,0.34853 0,0.15208 -0.02691,0.26825 -0.08072,0.34853 -0.0534,0.07987 -0.13087,0.11981 -0.2324,0.11981 -0.10155,0 -0.17922,-0.03993 -0.23303,-0.11981 -0.0534,-0.08027 -0.0801,-0.19645 -0.0801,-0.34853 0,-0.15248 0.0267,-0.26866 0.0801,-0.34853 0.05381,-0.08027 0.13148,-0.12041 0.23303,-0.12041 m 0.80646,0.41932 c -0.05502,10e-7 -0.09871,0.01876 -0.13108,0.05627 -0.03195,0.03751 -0.04793,0.08895 -0.04793,0.1543 0,0.06494 0.01598,0.11638 0.04793,0.1543 0.03237,0.03751 0.07606,0.05627 0.13108,0.05627 0.05501,0 0.09851,-0.01876 0.13047,-0.05627 0.03235,-0.03792 0.04854,-0.08935 0.04854,-0.1543 0,-0.06535 -0.01619,-0.11678 -0.04854,-0.1543 -0.03196,-0.03751 -0.07546,-0.05627 -0.13047,-0.05627 m 0.24333,-0.38302 v 0.11134 c -0.03074,-0.01452 -0.0619,-0.02561 -0.09345,-0.03328 -0.03114,-0.0077 -0.06209,-0.0115 -0.09284,-0.0115 -0.08091,0 -0.14281,0.02723 -0.18569,0.08169 -0.04248,0.05446 -0.06675,0.13675 -0.07281,0.24687 0.02386,-0.03509 0.05379,-0.06192 0.0898,-0.08048 0.036,-0.01896 0.07566,-0.02844 0.11894,-0.02844 0.09102,10e-7 0.16283,0.02763 0.21542,0.0829 0.053,0.05486 0.07949,0.12969 0.07949,0.22449 0,0.09278 -0.0275,0.1672 -0.08252,0.22328 -0.05502,0.05607 -0.12825,0.08411 -0.21967,0.08411 -0.10478,0 -0.18488,-0.03993 -0.2403,-0.11981 -0.05543,-0.08027 -0.08314,-0.19645 -0.08314,-0.34853 0,-0.1428 0.03399,-0.25655 0.10195,-0.34127 0.06796,-0.08511 0.15918,-0.12767 0.27367,-0.12767 0.03075,2e-6 0.0617,0.003 0.09285,0.0091 0.03155,0.0061 0.06432,0.01513 0.0983,0.02723 m 0.27186,-0.01997 h 0.48121 v 0.10286 h -0.36895 v 0.22146 c 0.0178,-0.0061 0.03561,-0.01049 0.0534,-0.01331 0.0178,-0.0032 0.03561,-0.0048 0.0534,-0.0048 0.10114,10e-7 0.18124,0.02763 0.2403,0.0829 0.05907,0.05527 0.0886,0.13009 0.0886,0.22449 0,0.09722 -0.03034,0.17285 -0.09102,0.2269 -0.06069,0.05365 -0.14625,0.08048 -0.25669,0.08048 -0.03803,0 -0.07686,-0.0032 -0.11651,-0.0097 -0.03924,-0.0065 -0.07989,-0.01614 -0.12197,-0.02905 v -0.12283 c 0.03641,0.01977 0.07404,0.03449 0.11287,0.04417 0.03883,0.0097 0.0799,0.01452 0.12318,0.01452 0.06999,0 0.12541,-0.01835 0.16627,-0.05506 0.04086,-0.03671 0.06129,-0.08653 0.0613,-0.14946 -10e-6,-0.06293 -0.02044,-0.11275 -0.0613,-0.14946 -0.04086,-0.03671 -0.09628,-0.05506 -0.16627,-0.05506 -0.03276,0 -0.06554,0.0036 -0.0983,0.01089 -0.03237,0.0073 -0.06554,0.01856 -0.09952,0.03388 v -0.45381 m 1.1548,0 h 0.58255 v 0.05204 l -0.3289,0.85135 h -0.12804 l 0.30948,-0.80052 h -0.43509 v -0.10286 m 1.0996,0.40298 c -0.05502,1e-6 -0.09871,0.01876 -0.13107,0.05627 -0.03196,0.03751 -0.04794,0.08895 -0.04794,0.1543 0,0.06494 0.01598,0.11638 0.04794,0.1543 0.03236,0.03751 0.07605,0.05627 0.13107,0.05627 0.05502,0 0.09851,-0.01876 0.13047,-0.05627 0.03236,-0.03792 0.04854,-0.08935 0.04854,-0.1543 0,-0.06535 -0.01618,-0.11678 -0.04854,-0.1543 -0.03196,-0.03751 -0.07545,-0.05627 -0.13047,-0.05627 m 0.24334,-0.38302 v 0.11134 c -0.03075,-0.01452 -0.0619,-0.02561 -0.09345,-0.03328 -0.03115,-0.0077 -0.0621,-0.0115 -0.09285,-0.0115 -0.08091,0 -0.14281,0.02723 -0.18569,0.08169 -0.04248,0.05446 -0.06675,0.13675 -0.07281,0.24687 0.02386,-0.03509 0.0538,-0.06192 0.08981,-0.08048 0.036,-0.01896 0.07565,-0.02844 0.11894,-0.02844 0.09101,1e-6 0.16282,0.02763 0.21541,0.0829 0.053,0.05486 0.07949,0.12969 0.07949,0.22449 0,0.09278 -0.0275,0.1672 -0.08252,0.22328 -0.05502,0.05607 -0.12824,0.08411 -0.21967,0.08411 -0.10477,0 -0.18487,-0.03993 -0.2403,-0.11981 -0.05542,-0.08027 -0.08313,-0.19645 -0.08313,-0.34853 0,-0.1428 0.03398,-0.25655 0.10194,-0.34127 0.06796,-0.08511 0.15919,-0.12767 0.27368,-0.12767 0.03074,2e-6 0.06169,0.003 0.09284,0.0091 0.03156,0.0061 0.06432,0.01513 0.09831,0.02723 m 0.23969,-0.01997 h 0.58255 v 0.05204 l -0.3289,0.85135 h -0.12803 l 0.30947,-0.80052 h -0.43509 v -0.10286 m 0.82589,0.88463 v -0.11134 c 0.03074,0.01452 0.06189,0.02562 0.09344,0.03328 0.03156,0.0077 0.06251,0.0115 0.09285,0.0115 0.08091,0 0.1426,-0.02703 0.18508,-0.08108 0.04288,-0.05446 0.06735,-0.13695 0.07342,-0.24748 -0.02346,0.03469 -0.05319,0.06132 -0.0892,0.07987 -0.036,0.01856 -0.07585,0.02783 -0.11954,0.02783 -0.09062,0 -0.16243,-0.02723 -0.21542,-0.08169 -0.0526,-0.05486 -0.07889,-0.12969 -0.07889,-0.22448 0,-0.09278 0.02751,-0.1672 0.08252,-0.22328 0.05503,-0.05607 0.12825,-0.08411 0.21968,-0.08411 0.10477,2e-6 0.18467,0.04014 0.23969,0.12041 0.05542,0.07987 0.08313,0.19605 0.08314,0.34853 -1e-5,0.1424 -0.03399,0.25615 -0.10195,0.34127 -0.06756,0.08471 -0.15858,0.12707 -0.27307,0.12707 -0.03074,0 -0.0619,-0.003 -0.09345,-0.0091 -0.03156,-0.0061 -0.06432,-0.01513 -0.0983,-0.02723 m 0.24394,-0.38302 c 0.05501,0 0.09851,-0.01876 0.13046,-0.05627 0.03236,-0.03751 0.04855,-0.08895 0.04855,-0.1543 0,-0.06495 -0.01619,-0.11617 -0.04855,-0.15369 -0.03195,-0.03792 -0.07545,-0.05688 -0.13046,-0.05688 -0.05502,1e-6 -0.09871,0.01896 -0.13108,0.05688 -0.03195,0.03752 -0.04793,0.08874 -0.04793,0.15369 0,0.06535 0.01598,0.11678 0.04793,0.1543 0.03237,0.03751 0.07606,0.05627 0.13108,0.05627 m 0.54735,0.38302 v -0.11134 c 0.03074,0.01452 0.0619,0.02562 0.09345,0.03328 0.03155,0.0077 0.0625,0.0115 0.09285,0.0115 0.0809,0 0.1426,-0.02703 0.18508,-0.08108 0.04288,-0.05446 0.06735,-0.13695 0.07342,-0.24748 -0.02347,0.03469 -0.0532,0.06132 -0.0892,0.07987 -0.036,0.01856 -0.07586,0.02783 -0.11955,0.02783 -0.09062,0 -0.16242,-0.02723 -0.21542,-0.08169 -0.05259,-0.05486 -0.07888,-0.12969 -0.07888,-0.22448 0,-0.09278 0.0275,-0.1672 0.08252,-0.22328 0.05502,-0.05607 0.12825,-0.08411 0.21967,-0.08411 0.10478,2e-6 0.18468,0.04014 0.2397,0.12041 0.05542,0.07987 0.08313,0.19605 0.08313,0.34853 0,0.1424 -0.03398,0.25615 -0.10194,0.34127 -0.06757,0.08471 -0.15858,0.12707 -0.27308,0.12707 -0.03074,0 -0.06189,-0.003 -0.09345,-0.0091 -0.03155,-0.0061 -0.06432,-0.01513 -0.0983,-0.02723 m 0.24394,-0.38302 c 0.05502,0 0.09851,-0.01876 0.13046,-0.05627 0.03237,-0.03751 0.04855,-0.08895 0.04855,-0.1543 0,-0.06495 -0.01618,-0.11617 -0.04855,-0.15369 -0.03195,-0.03792 -0.07544,-0.05688 -0.13046,-0.05688 -0.05501,10e-7 -0.09871,0.01896 -0.13107,0.05688 -0.03196,0.03752 -0.04794,0.08874 -0.04794,0.15369 0,0.06535 0.01598,0.11678 0.04794,0.1543 0.03236,0.03751 0.07606,0.05627 0.13107,0.05627"
       inkscape:connector-curvature="0" />
    <rect
       id="rect6553"
       style="fill:url(#linearGradient7883);fill-rule:evenodd"
       rx="0.3125"
       ry="0.3125"
       height="11.704"
       width="9.9773998"
       y="19.740999"
       x="5.0518999" />
    <g
       id="g6935"
       style="fill:#939393"
       transform="matrix(0.30043,0,0,0.29957,-1.2393,19.268)">
      <path
         id="path2329"
         style="fill:#939393;fill-rule:evenodd"
         d="m 50.301,40.747 c 1.0356,-2.9825 0.17678,-8.8923 -6.5407,-13.488 h -12.551 c -6.7175,4.2426 -7.557,10.045 -6.0104,13.435 l 25.102,0.05345 z"
         inkscape:connector-curvature="0" />
      <path
         id="path2327"
         style="fill:#939393;fill-rule:evenodd"
         d="m 39.775,19.009 a 8.6621,8.6621 0 1 1 -17.324,0 8.6621,8.6621 0 1 1 17.324,0 z"
         transform="translate(6.4071,1.7424)"
         inkscape:connector-curvature="0" />
    </g>
    <rect
       id="rect6555"
       style="fill:none;stroke:#ffffff;stroke-width:1.9131"
       rx="1.7776999"
       ry="1.7776999"
       height="22"
       width="32"
       y="17.5"
       x="3.5" />
  </g>
  <rect
     id="rect2373"
     style="fill:url(#linearGradient2918);fill-rule:evenodd;stroke:#939393;stroke-width:1.0678755"
     rx="1.0378791"
     ry="1.0234509"
     height="13.913156"
     width="20.649609"
     y="4.5339427"
     x="0.70642835" />
  <path
     id="path2375"
     d="m 10.567632,7.7620647 c 0.01836,0.2778561 -0.12329,0.6446175 -0.457203,0.6321922 C 9.899914,8.4329253 9.9464055,8.240547 9.9449933,8.109117 c 0.015468,-0.049729 0.3204977,0.1069232 0.3335547,-0.1227216 0.05701,-0.299911 0.0185,-0.6093874 0.0298,-0.9137115 0.02022,-0.082787 -0.0418,-0.2466642 0.03339,-0.2752318 0.08284,0.019996 0.265784,-0.058716 0.225875,0.08233 V 7.7620765 z M 11.29153,7.203996 c 0.355932,-0.015636 0.524257,0.3833321 0.470911,0.6822363 0.0074,0.345799 -0.375679,0.6203345 -0.699979,0.4663247 -0.352054,-0.178989 -0.366392,-0.6987105 -0.14849,-0.9839575 0.09048,-0.110971 0.234304,-0.1675277 0.377689,-0.1646356 z m -0.02138,0.9537297 c 0.330969,-0.032652 0.344319,-0.6039459 0.05651,-0.7089614 -0.393201,-0.066694 -0.430851,0.6970074 -0.05652,0.7089614 z m 1.578321,0.2027685 c -0.08048,-0.024454 -0.271356,0.059952 -0.249045,-0.065865 -0.0085,-0.242626 0.02046,-0.488776 -0.02247,-0.7283171 -0.144971,-0.2782738 -0.428178,0.042125 -0.350153,0.2564331 v 0.5377489 c -0.07431,-0.025965 -0.258527,0.05645 -0.251836,-0.049401 V 6.7081183 c 0.07431,0.025961 0.258527,-0.056451 0.251836,0.049397 v 0.6427323 c 0.102835,-0.2818836 0.575658,-0.250499 0.601935,0.061311 0.03779,0.2967297 0.0123,0.5999827 0.01976,0.8989511 z m 1.141105,0 c -0.08048,-0.024454 -0.271356,0.059952 -0.249044,-0.065865 -0.0085,-0.242626 0.02048,-0.488776 -0.02248,-0.7283171 -0.144971,-0.2782738 -0.428189,0.042123 -0.350163,0.2564331 v 0.5377489 c -0.07431,-0.025965 -0.258528,0.05645 -0.251836,-0.049401 V 7.2443676 c 0.07431,0.025962 0.258527,-0.056451 0.251836,0.049397 -0.03879,0.2476926 0.227417,-0.2567008 0.41347,-0.073631 0.261221,0.1161982 0.199674,0.4388819 0.208212,0.6722103 V 8.36049 z m 0.81497,-1.5630207 c 0.312188,0.018618 0.667098,-0.069118 0.92895,0.1460405 0.262351,0.2605249 0.259613,0.6902806 0.140202,1.016242 -0.110787,0.2900457 -0.433522,0.4339974 -0.733523,0.4007275 H 14.804549 V 6.7974628 z m 0.259266,1.3221193 c 0.208267,0.013138 0.460016,-0.009 0.553727,-0.2274585 0.135998,-0.2808017 0.09283,-0.7630759 -0.276516,-0.8353891 -0.09484,0.014015 -0.327135,-0.080235 -0.277211,0.090211 v 0.9726462 z m 1.550078,-0.9155754 c 0.355932,-0.015635 0.524257,0.3833322 0.470922,0.6822363 0.0074,0.3457991 -0.375679,0.6203346 -0.699979,0.4663248 -0.351782,-0.1789355 -0.36611,-0.698732 -0.148219,-0.9839683 0.09045,-0.1109496 0.234706,-0.1674741 0.377287,-0.164582 z m -0.02138,0.9537298 c 0.330969,-0.03265 0.344319,-0.603946 0.05651,-0.7089615 -0.393201,-0.066694 -0.43085,0.6970074 -0.05651,0.7089615 z m 1.524008,-0.2910205 h -0.633761 c -0.05996,0.3897911 0.465708,0.247671 0.544559,0.2390483 0.05529,0.1913286 -0.0974,0.2866716 -0.283979,0.2805554 -0.354649,0.052968 -0.563231,-0.3285215 -0.511276,-0.6333383 -0.02058,-0.3285857 0.312362,-0.6714927 0.648893,-0.5162725 0.236564,0.1164232 0.240865,0.4035554 0.235575,0.6299964 z M 17.884208,7.670535 c 0.06573,-0.3435282 -0.475082,-0.2763886 -0.38475,0 h 0.38475 z"
     inkscape:connector-curvature="0" />
  <rect
     id="rect2377"
     style="opacity:0.39766002;fill:#8d8d8d;fill-rule:evenodd"
     rx="0.54312485"
     ry="0.56206405"
     height="1.1241709"
     width="8.1468735"
     y="9.5184278"
     x="9.944993" />
  <rect
     id="rect2379"
     style="opacity:0.39766002;fill:#8d8d8d;fill-rule:evenodd"
     rx="0.54312485"
     ry="0.56206405"
     height="1.1241709"
     width="6.5174985"
     y="11.205059"
     x="9.944993" />
  <path
     id="rect2383"
     style="opacity:0.48537999;fill-rule:evenodd"
     d="m 2.3412451,14.581321 v 2.276192 H 2.88437 V 14.581321 H 2.3412451 z m 1.0862497,0 V 15.68589 H 4.5137446 V 14.581321 H 3.4274948 z m 1.6293747,0 V 15.68589 H 5.5999943 V 14.581321 H 5.0568695 z m 1.0862497,0 V 15.68589 H 7.229369 V 14.581321 H 6.1431192 z m 2.1724995,0 V 15.68589 H 8.8587436 V 14.581321 H 8.3156187 z m 1.0862498,0 V 15.68589 H 10.488118 V 14.581321 H 9.4018685 z m 1.6293745,0 v 1.104569 h 1.08625 v -1.104569 h -1.08625 z"
     inkscape:connector-curvature="0" />
  <rect
     id="rect2415"
     style="fill:url(#linearGradient2905);fill-rule:evenodd"
     rx="0.20412806"
     ry="0.20018706"
     height="7.4980435"
     width="6.5174985"
     y="6.1460223"
     x="2.3412452" />
  <path
     id="path2419"
     style="fill:#939393;fill-rule:evenodd"
     d="M 5.4642131,8.0539528 C 4.391107,8.0665924 3.5145034,9.2094013 3.878723,10.223565 c 0.018554,0.287839 0.4534332,0.651891 0.4865964,0.776123 -0.187063,0.03118 -0.332664,0.198505 -0.4900507,0.300393 -0.5936463,0.461547 -1.059213,1.201508 -0.9288196,1.970914 0.04089,0.139282 0.041472,0.397578 0.2473282,0.339619 h 4.985995 C 8.4122298,12.903655 8.0779907,12.13457 7.5911336,11.610778 7.3700818,11.377268 7.1195926,11.156611 6.840535,10.999152 6.5754901,11.037714 6.9301506,10.860974 6.969147,10.762428 7.7419051,9.9435347 7.3001273,8.4957697 6.2390785,8.1633921 5.9928257,8.0722373 5.7264773,8.0348542 5.4642566,8.0537064 z"
     inkscape:connector-curvature="0" />
  <rect
     id="rect2423"
     style="fill:none;stroke:#ffffff;stroke-width:1.0678755"
     rx="0.15584426"
     ry="0.15367776"
     height="11.728011"
     width="18.46842"
     y="5.6163387"
     x="1.7752002" />
</svg>
